<svg width="85" height="28" viewBox="0 0 85 28" fill="none" xmlns="http://www.w3.org/2000/svg">
<g id="Logo" clip-path="url(#clip0_3058_31770)">
<path id="Vector" d="M0 0H12.6667C17.2766 0 19 2.13707 19 5.40813V8.9844C19 11.2523 18.6122 12.9969 16.9319 13.9128C18.6122 14.6542 19 16.1807 19 18.4049V22.5919C19 25.8629 17.2766 28 12.6667 28H0V0ZM11.5896 10.5109V5.97508C11.5896 5.32085 11.2449 5.01556 10.5124 5.01556H7.41035V11.4704H10.5124C11.2449 11.4704 11.5896 11.1651 11.5896 10.5109ZM11.5896 22.0249V17.4455C11.5896 16.7913 11.2449 16.486 10.5124 16.486H7.41035V22.9844H10.5124C11.2449 22.9844 11.5896 22.6791 11.5896 22.0249Z" fill="white"/>
<path id="Vector_2" d="M34.2891 0H41V28H34.7086L28.7109 13.3022V28H22V0H28.2914L34.2891 14.9595V0Z" fill="white"/>
<path id="Vector_3" d="M44 0H57.0756C61.7864 0 63.5474 2.12476 63.5474 5.37693V12.5751C63.5474 15.1334 62.4908 16.9546 59.7611 17.6485L65 28H56.7244L52.1887 17.952H51.7045V28H44V0ZM55.8429 11.8379V6.37427C55.8429 5.72379 55.4906 5.42025 54.7422 5.42025H51.7045V12.7919H54.7422C55.4906 12.7919 55.8429 12.4883 55.8429 11.8379Z" fill="white"/>
<path id="Vector_4" d="M66 0H78.7095C83.2882 0 85 2.12443 85 5.37608V13.3535C85 16.6052 83.2882 18.7296 78.7095 18.7296H73.4887V28H66V0ZM77.5112 12.3563V6.37328C77.5112 5.72289 77.1689 5.4194 76.4414 5.4194H73.4887V13.3101H76.4414C77.1689 13.3101 77.5112 13.0066 77.5112 12.3563Z" fill="white"/>
</g>
<defs>
<clipPath id="clip0_3058_31770">
<rect width="85" height="28" fill="white"/>
</clipPath>
</defs>
</svg>
