<svg width="28" height="28" viewBox="0 0 28 28" fill="none" xmlns="http://www.w3.org/2000/svg">
<g id="Icon">
<path id="Icon_2" d="M7.58333 23.3333H5.83333C4.54467 23.3333 3.5 22.2886 3.5 20.9999V4.66659C3.5 3.37792 4.54467 2.33325 5.83333 2.33325H22.1667C23.4553 2.33325 24.5 3.37792 24.5 4.66659V20.9999C24.5 22.2886 23.4553 23.3333 22.1667 23.3333H20.4167M14 22.1666C15.933 22.1666 17.5 20.5996 17.5 18.6666C17.5 16.7336 15.933 15.1666 14 15.1666C12.067 15.1666 10.5 16.7336 10.5 18.6666C10.5 20.5996 12.067 22.1666 14 22.1666ZM14 22.1666L14.025 22.1663L10.3001 25.8912L7.00028 22.5914L10.5229 19.0688M14 22.1666L17.7249 25.8912L21.0248 22.5914L17.5021 19.0688M10.5 6.99992H17.5M8.16667 11.0833H19.8333" stroke="white" stroke-width="2" stroke-linecap="round" stroke-linejoin="round"/>
</g>
</svg>
