<svg width="28" height="28" viewBox="0 0 28 28" fill="none" xmlns="http://www.w3.org/2000/svg">
<g id="image-03">
<path id="Icon" d="M4.98427 24.1826L12.6802 16.4866C13.1423 16.0246 13.3733 15.7936 13.6396 15.707C13.874 15.6309 14.1264 15.6309 14.3607 15.707C14.6271 15.7936 14.8581 16.0246 15.3201 16.4866L22.9647 24.1312M16.3335 17.5L19.6802 14.1533C20.1422 13.6912 20.3733 13.4602 20.6396 13.3737C20.874 13.2975 21.1264 13.2975 21.3607 13.3737C21.6271 13.4602 21.8581 13.6912 22.3201 14.1533L25.6668 17.5M11.6668 10.5C11.6668 11.7887 10.6222 12.8333 9.3335 12.8333C8.04483 12.8333 7.00016 11.7887 7.00016 10.5C7.00016 9.21134 8.04483 8.16667 9.3335 8.16667C10.6222 8.16667 11.6668 9.21134 11.6668 10.5ZM7.9335 24.5H20.0668C22.027 24.5 23.0071 24.5 23.7558 24.1185C24.4144 23.783 24.9498 23.2475 25.2854 22.589C25.6668 21.8403 25.6668 20.8602 25.6668 18.9V9.1C25.6668 7.13982 25.6668 6.15972 25.2854 5.41103C24.9498 4.75247 24.4144 4.21703 23.7558 3.88148C23.0071 3.5 22.027 3.5 20.0668 3.5H7.9335C5.97331 3.5 4.99322 3.5 4.24453 3.88148C3.58596 4.21703 3.05053 4.75247 2.71497 5.41103C2.3335 6.15972 2.3335 7.13982 2.3335 9.1V18.9C2.3335 20.8602 2.3335 21.8403 2.71497 22.589C3.05053 23.2475 3.58596 23.783 4.24453 24.1185C4.99322 24.5 5.97331 24.5 7.9335 24.5Z" stroke="#1C3586" stroke-width="2" stroke-linecap="round" stroke-linejoin="round"/>
</g>
</svg>
